<svg viewBox="0 0 1530 1450" width="1530px" height="1450px" id="theclust" style="display: block;"><g><text x="608.2123614444112" y="103" transform="rotate(0, 603.2123614444112, 100)">tlg0059004phaedo.replicatio.v03.txtkn</text><circle title="tlg0059004phaedo.replicatio.v03.txt" id="tlg0059004phaedo.replicatio.v03.txtdot" fill="none" stroke-width="1" stroke="#2B64FF" cx="603.2123614444112" cy="100" r="5" onclick="console.log(this)"></circle></g><g><text x="608.2123614444112" y="223" transform="rotate(0, 603.2123614444112, 220)">tlg0059002apologia.replicatio.v03.txtkn</text><circle title="tlg0059002apologia.replicatio.v03.txt" id="tlg0059002apologia.replicatio.v03.txtdot" fill="none" stroke-width="1" stroke="#8AA227" cx="603.2123614444112" cy="220" r="5" onclick="console.log(this)"></circle></g><g><text x="574.5741195705211" y="343" transform="rotate(0, 569.5741195705211, 340)">tlg0032005apologia.replicatio.v03.txtkn</text><circle title="tlg0032005apologia.replicatio.v03.txt" id="tlg0032005apologia.replicatio.v03.txtdot" fill="none" stroke-width="1" stroke="#D0FA79" cx="569.5741195705211" cy="340" r="5" onclick="console.log(this)"></circle></g><g><text x="703.7147827207957" y="463" transform="rotate(0, 698.7147827207957, 460)">tlg0059008politicus.replicatio.v03.txtkn</text><circle title="tlg0059008politicus.replicatio.v03.txt" id="tlg0059008politicus.replicatio.v03.txtdot" fill="none" stroke-width="1" stroke="#F9DD29" cx="698.7147827207957" cy="460" r="5" onclick="console.log(this)"></circle></g><g><text x="703.7147827207957" y="583" transform="rotate(0, 698.7147827207957, 580)">tlg0059034leges.replicatio.v03.txtkn</text><circle title="tlg0059034leges.replicatio.v03.txt" id="tlg0059034leges.replicatio.v03.txtdot" fill="none" stroke-width="1" stroke="#93F7A5" cx="698.7147827207957" cy="580" r="5" onclick="console.log(this)"></circle></g><g><text x="506.1865029615076" y="703" transform="rotate(0, 501.1865029615076, 700)">tlg0059038axiochus.replicatio.v03.txtkn</text><circle title="tlg0059038axiochus.replicatio.v03.txt" id="tlg0059038axiochus.replicatio.v03.txtdot" fill="none" stroke-width="1" stroke="#249BD3" cx="501.1865029615076" cy="700" r="5" onclick="console.log(this)"></circle></g><g><text x="755.6909299571421" y="823" transform="rotate(0, 750.6909299571421, 820)">tlg0007096tranquillitate.replicatio.v03.txtkn</text><circle title="tlg0007096tranquillitate.replicatio.v03.txt" id="tlg0007096tranquillitate.replicatio.v03.txtdot" fill="none" stroke-width="1" stroke="#230011" cx="750.6909299571421" cy="820" r="5" onclick="console.log(this)"></circle></g><g><text x="755.6909299571421" y="943" transform="rotate(0, 750.6909299571421, 940)">tlg0007095ira.replicatio.v03.txtkn</text><circle title="tlg0007095ira.replicatio.v03.txt" id="tlg0007095ira.replicatio.v03.txtdot" fill="none" stroke-width="1" stroke="#DA0353" cx="750.6909299571421" cy="940" r="5" onclick="console.log(this)"></circle></g><line stroke="#DA0353" stroke-width="1" x1="750.6909299571421" y1="820" x2="730.6909299571421" y2="820"></line><line stroke="#DA0353" stroke-width="1" x1="750.6909299571421" y1="940" x2="730.6909299571421" y2="940"></line><line stroke="#DA0353" stroke-width="1" x1="730.6909299571421" y1="820" x2="730.6909299571421" y2="940"></line><line stroke="#DA0353" stroke-width="1" x1="730.6909299571421" y1="820" x2="730.6909299571421" y2="820"></line><line stroke="#DA0353" stroke-width="1" x1="730.6909299571421" y1="940" x2="730.6909299571421" y2="940"></line><line stroke="#DA0353" stroke-width="1" x1="750.6909299571421" y1="820" x2="730.6909299571421" y2="820"></line><line stroke="#DA0353" stroke-width="1" x1="750.6909299571421" y1="940" x2="730.6909299571421" y2="940"></line><line stroke="#DA0353" stroke-width="1" x1="730.6909299571421" y1="820" x2="730.6909299571421" y2="940"></line><line stroke="#DA0353" stroke-width="1" x1="730.6909299571421" y1="820" x2="730.6909299571421" y2="820"></line><line stroke="#DA0353" stroke-width="1" x1="730.6909299571421" y1="940" x2="730.6909299571421" y2="940"></line><line stroke="#93F7A5" stroke-width="1" x1="698.7147827207957" y1="460" x2="678.7147827207957" y2="460"></line><line stroke="#93F7A5" stroke-width="1" x1="698.7147827207957" y1="580" x2="678.7147827207957" y2="580"></line><line stroke="#93F7A5" stroke-width="1" x1="678.7147827207957" y1="460" x2="678.7147827207957" y2="580"></line><line stroke="#93F7A5" stroke-width="1" x1="678.7147827207957" y1="460" x2="678.7147827207957" y2="460"></line><line stroke="#93F7A5" stroke-width="1" x1="678.7147827207957" y1="580" x2="678.7147827207957" y2="580"></line><line stroke="#DA0353" stroke-width="1" x1="750.6909299571421" y1="820" x2="730.6909299571421" y2="820"></line><line stroke="#DA0353" stroke-width="1" x1="750.6909299571421" y1="940" x2="730.6909299571421" y2="940"></line><line stroke="#DA0353" stroke-width="1" x1="730.6909299571421" y1="820" x2="730.6909299571421" y2="940"></line><line stroke="#DA0353" stroke-width="1" x1="730.6909299571421" y1="820" x2="730.6909299571421" y2="820"></line><line stroke="#DA0353" stroke-width="1" x1="730.6909299571421" y1="940" x2="730.6909299571421" y2="940"></line><line stroke="#93F7A5" stroke-width="1" x1="698.7147827207957" y1="460" x2="678.7147827207957" y2="460"></line><line stroke="#93F7A5" stroke-width="1" x1="698.7147827207957" y1="580" x2="678.7147827207957" y2="580"></line><line stroke="#93F7A5" stroke-width="1" x1="678.7147827207957" y1="460" x2="678.7147827207957" y2="580"></line><line stroke="#93F7A5" stroke-width="1" x1="678.7147827207957" y1="460" x2="678.7147827207957" y2="460"></line><line stroke="#93F7A5" stroke-width="1" x1="678.7147827207957" y1="580" x2="678.7147827207957" y2="580"></line><line stroke="#8AA227" stroke-width="1" x1="603.2123614444112" y1="100" x2="583.2123614444112" y2="100"></line><line stroke="#8AA227" stroke-width="1" x1="603.2123614444112" y1="220" x2="583.2123614444112" y2="220"></line><line stroke="#8AA227" stroke-width="1" x1="583.2123614444112" y1="100" x2="583.2123614444112" y2="220"></line><line stroke="#8AA227" stroke-width="1" x1="583.2123614444112" y1="100" x2="583.2123614444112" y2="100"></line><line stroke="#8AA227" stroke-width="1" x1="583.2123614444112" y1="220" x2="583.2123614444112" y2="220"></line><line stroke="#D0FA79" stroke-width="1" x1="569.5741195705211" y1="100" x2="549.5741195705211" y2="100"></line><line stroke="#D0FA79" stroke-width="1" x1="569.5741195705211" y1="340" x2="549.5741195705211" y2="340"></line><line stroke="#D0FA79" stroke-width="1" x1="549.5741195705211" y1="100" x2="549.5741195705211" y2="340"></line><line stroke="#D0FA79" stroke-width="1" x1="549.5741195705211" y1="100" x2="583.2123614444112" y2="100"></line><line stroke="#D0FA79" stroke-width="1" x1="549.5741195705211" y1="340" x2="549.5741195705211" y2="340"></line><line stroke="#DA0353" stroke-width="1" x1="750.6909299571421" y1="820" x2="730.6909299571421" y2="820"></line><line stroke="#DA0353" stroke-width="1" x1="750.6909299571421" y1="940" x2="730.6909299571421" y2="940"></line><line stroke="#DA0353" stroke-width="1" x1="730.6909299571421" y1="820" x2="730.6909299571421" y2="940"></line><line stroke="#DA0353" stroke-width="1" x1="730.6909299571421" y1="820" x2="730.6909299571421" y2="820"></line><line stroke="#DA0353" stroke-width="1" x1="730.6909299571421" y1="940" x2="730.6909299571421" y2="940"></line><line stroke="#93F7A5" stroke-width="1" x1="698.7147827207957" y1="460" x2="678.7147827207957" y2="460"></line><line stroke="#93F7A5" stroke-width="1" x1="698.7147827207957" y1="580" x2="678.7147827207957" y2="580"></line><line stroke="#93F7A5" stroke-width="1" x1="678.7147827207957" y1="460" x2="678.7147827207957" y2="580"></line><line stroke="#93F7A5" stroke-width="1" x1="678.7147827207957" y1="460" x2="678.7147827207957" y2="460"></line><line stroke="#93F7A5" stroke-width="1" x1="678.7147827207957" y1="580" x2="678.7147827207957" y2="580"></line><line stroke="#D0FA79" stroke-width="1" x1="569.5741195705211" y1="100" x2="549.5741195705211" y2="100"></line><line stroke="#D0FA79" stroke-width="1" x1="569.5741195705211" y1="340" x2="549.5741195705211" y2="340"></line><line stroke="#D0FA79" stroke-width="1" x1="549.5741195705211" y1="100" x2="549.5741195705211" y2="340"></line><line stroke="#D0FA79" stroke-width="1" x1="549.5741195705211" y1="100" x2="583.2123614444112" y2="100"></line><line stroke="#D0FA79" stroke-width="1" x1="549.5741195705211" y1="340" x2="549.5741195705211" y2="340"></line><line stroke="#DA0353" stroke-width="1" x1="750.6909299571421" y1="820" x2="730.6909299571421" y2="820"></line><line stroke="#DA0353" stroke-width="1" x1="750.6909299571421" y1="940" x2="730.6909299571421" y2="940"></line><line stroke="#DA0353" stroke-width="1" x1="730.6909299571421" y1="820" x2="730.6909299571421" y2="940"></line><line stroke="#DA0353" stroke-width="1" x1="730.6909299571421" y1="820" x2="730.6909299571421" y2="820"></line><line stroke="#DA0353" stroke-width="1" x1="730.6909299571421" y1="940" x2="730.6909299571421" y2="940"></line><line stroke="#249BD3" stroke-width="1" x1="501.1865029615076" y1="460" x2="481.1865029615076" y2="460"></line><line stroke="#249BD3" stroke-width="1" x1="501.1865029615076" y1="700" x2="481.1865029615076" y2="700"></line><line stroke="#249BD3" stroke-width="1" x1="481.1865029615076" y1="460" x2="481.1865029615076" y2="700"></line><line stroke="#249BD3" stroke-width="1" x1="481.1865029615076" y1="460" x2="678.7147827207957" y2="460"></line><line stroke="#249BD3" stroke-width="1" x1="481.1865029615076" y1="700" x2="481.1865029615076" y2="700"></line><line stroke="#DA0353" stroke-width="1" x1="750.6909299571421" y1="820" x2="730.6909299571421" y2="820"></line><line stroke="#DA0353" stroke-width="1" x1="750.6909299571421" y1="940" x2="730.6909299571421" y2="940"></line><line stroke="#DA0353" stroke-width="1" x1="730.6909299571421" y1="820" x2="730.6909299571421" y2="940"></line><line stroke="#DA0353" stroke-width="1" x1="730.6909299571421" y1="820" x2="730.6909299571421" y2="820"></line><line stroke="#DA0353" stroke-width="1" x1="730.6909299571421" y1="940" x2="730.6909299571421" y2="940"></line><line stroke="#249BD3" stroke-width="1" x1="501.1865029615076" y1="100" x2="481.1865029615076" y2="100"></line><line stroke="#249BD3" stroke-width="1" x1="501.1865029615076" y1="700" x2="481.1865029615076" y2="700"></line><line stroke="#249BD3" stroke-width="1" x1="481.1865029615076" y1="100" x2="481.1865029615076" y2="700"></line><line stroke="#249BD3" stroke-width="1" x1="481.1865029615076" y1="100" x2="583.2123614444112" y2="100"></line><line stroke="#249BD3" stroke-width="1" x1="481.1865029615076" y1="700" x2="481.1865029615076" y2="700"></line><line stroke="#DA0353" stroke-width="1" x1="501.1865029615076" y1="100" x2="481.1865029615076" y2="100"></line><line stroke="#DA0353" stroke-width="1" x1="501.1865029615076" y1="940" x2="481.1865029615076" y2="940"></line><line stroke="#DA0353" stroke-width="1" x1="481.1865029615076" y1="100" x2="481.1865029615076" y2="940"></line><line stroke="#DA0353" stroke-width="1" x1="481.1865029615076" y1="100" x2="583.2123614444112" y2="100"></line><line stroke="#DA0353" stroke-width="1" x1="481.1865029615076" y1="940" x2="730.6909299571421" y2="940"></line></svg>