<svg viewBox="0 0 1530 1450" width="1530px" height="1450px" id="theclust" style="display: block;"><g><text x="774.6383790256414" y="103" transform="rotate(0, 769.6383790256414, 100)">tlg0059004phaedo.replicatio.v03.txtkn</text><circle title="tlg0059004phaedo.replicatio.v03.txt" id="tlg0059004phaedo.replicatio.v03.txtdot" fill="none" stroke-width="1" stroke="#3B7EDB" cx="769.6383790256414" cy="100" r="5" onclick="console.log(this)"></circle></g><g><text x="774.6383790256414" y="223" transform="rotate(0, 769.6383790256414, 220)">tlg0059002apologia.replicatio.v03.txtkn</text><circle title="tlg0059002apologia.replicatio.v03.txt" id="tlg0059002apologia.replicatio.v03.txtdot" fill="none" stroke-width="1" stroke="#6DD657" cx="769.6383790256414" cy="220" r="5" onclick="console.log(this)"></circle></g><g><text x="711.3455062103676" y="343" transform="rotate(0, 706.3455062103676, 340)">tlg0032005apologia.replicatio.v03.txtkn</text><circle title="tlg0032005apologia.replicatio.v03.txt" id="tlg0032005apologia.replicatio.v03.txtdot" fill="none" stroke-width="1" stroke="#50DE5A" cx="706.3455062103676" cy="340" r="5" onclick="console.log(this)"></circle></g><g><text x="861.3565130755323" y="463" transform="rotate(0, 856.3565130755323, 460)">tlg0059008politicus.replicatio.v03.txtkn</text><circle title="tlg0059008politicus.replicatio.v03.txt" id="tlg0059008politicus.replicatio.v03.txtdot" fill="none" stroke-width="1" stroke="#6137E3" cx="856.3565130755323" cy="460" r="5" onclick="console.log(this)"></circle></g><g><text x="861.3565130755323" y="583" transform="rotate(0, 856.3565130755323, 580)">tlg0059034leges.replicatio.v03.txtkn</text><circle title="tlg0059034leges.replicatio.v03.txt" id="tlg0059034leges.replicatio.v03.txtdot" fill="none" stroke-width="1" stroke="#73F191" cx="856.3565130755323" cy="580" r="5" onclick="console.log(this)"></circle></g><g><text x="609.590931444968" y="703" transform="rotate(0, 604.590931444968, 700)">tlg0059038axiochus.replicatio.v03.txtkn</text><circle title="tlg0059038axiochus.replicatio.v03.txt" id="tlg0059038axiochus.replicatio.v03.txtdot" fill="none" stroke-width="1" stroke="#3D9A34" cx="604.590931444968" cy="700" r="5" onclick="console.log(this)"></circle></g><g><text x="915.9158708240278" y="823" transform="rotate(0, 910.9158708240278, 820)">tlg0007096tranquillitate.replicatio.v03.txtkn</text><circle title="tlg0007096tranquillitate.replicatio.v03.txt" id="tlg0007096tranquillitate.replicatio.v03.txtdot" fill="none" stroke-width="1" stroke="#83D120" cx="910.9158708240278" cy="820" r="5" onclick="console.log(this)"></circle></g><g><text x="915.9158708240278" y="943" transform="rotate(0, 910.9158708240278, 940)">tlg0007095ira.replicatio.v03.txtkn</text><circle title="tlg0007095ira.replicatio.v03.txt" id="tlg0007095ira.replicatio.v03.txtdot" fill="none" stroke-width="1" stroke="#304B31" cx="910.9158708240278" cy="940" r="5" onclick="console.log(this)"></circle></g><line stroke="#304B31" stroke-width="1" x1="910.9158708240278" y1="820" x2="890.9158708240278" y2="820"></line><line stroke="#304B31" stroke-width="1" x1="910.9158708240278" y1="940" x2="890.9158708240278" y2="940"></line><line stroke="#304B31" stroke-width="1" x1="890.9158708240278" y1="820" x2="890.9158708240278" y2="940"></line><line stroke="#304B31" stroke-width="1" x1="890.9158708240278" y1="820" x2="890.9158708240278" y2="820"></line><line stroke="#304B31" stroke-width="1" x1="890.9158708240278" y1="940" x2="890.9158708240278" y2="940"></line><line stroke="#304B31" stroke-width="1" x1="910.9158708240278" y1="820" x2="890.9158708240278" y2="820"></line><line stroke="#304B31" stroke-width="1" x1="910.9158708240278" y1="940" x2="890.9158708240278" y2="940"></line><line stroke="#304B31" stroke-width="1" x1="890.9158708240278" y1="820" x2="890.9158708240278" y2="940"></line><line stroke="#304B31" stroke-width="1" x1="890.9158708240278" y1="820" x2="890.9158708240278" y2="820"></line><line stroke="#304B31" stroke-width="1" x1="890.9158708240278" y1="940" x2="890.9158708240278" y2="940"></line><line stroke="#73F191" stroke-width="1" x1="856.3565130755323" y1="460" x2="836.3565130755323" y2="460"></line><line stroke="#73F191" stroke-width="1" x1="856.3565130755323" y1="580" x2="836.3565130755323" y2="580"></line><line stroke="#73F191" stroke-width="1" x1="836.3565130755323" y1="460" x2="836.3565130755323" y2="580"></line><line stroke="#73F191" stroke-width="1" x1="836.3565130755323" y1="460" x2="836.3565130755323" y2="460"></line><line stroke="#73F191" stroke-width="1" x1="836.3565130755323" y1="580" x2="836.3565130755323" y2="580"></line><line stroke="#304B31" stroke-width="1" x1="910.9158708240278" y1="820" x2="890.9158708240278" y2="820"></line><line stroke="#304B31" stroke-width="1" x1="910.9158708240278" y1="940" x2="890.9158708240278" y2="940"></line><line stroke="#304B31" stroke-width="1" x1="890.9158708240278" y1="820" x2="890.9158708240278" y2="940"></line><line stroke="#304B31" stroke-width="1" x1="890.9158708240278" y1="820" x2="890.9158708240278" y2="820"></line><line stroke="#304B31" stroke-width="1" x1="890.9158708240278" y1="940" x2="890.9158708240278" y2="940"></line><line stroke="#73F191" stroke-width="1" x1="856.3565130755323" y1="460" x2="836.3565130755323" y2="460"></line><line stroke="#73F191" stroke-width="1" x1="856.3565130755323" y1="580" x2="836.3565130755323" y2="580"></line><line stroke="#73F191" stroke-width="1" x1="836.3565130755323" y1="460" x2="836.3565130755323" y2="580"></line><line stroke="#73F191" stroke-width="1" x1="836.3565130755323" y1="460" x2="836.3565130755323" y2="460"></line><line stroke="#73F191" stroke-width="1" x1="836.3565130755323" y1="580" x2="836.3565130755323" y2="580"></line><line stroke="#6DD657" stroke-width="1" x1="769.6383790256414" y1="100" x2="749.6383790256414" y2="100"></line><line stroke="#6DD657" stroke-width="1" x1="769.6383790256414" y1="220" x2="749.6383790256414" y2="220"></line><line stroke="#6DD657" stroke-width="1" x1="749.6383790256414" y1="100" x2="749.6383790256414" y2="220"></line><line stroke="#6DD657" stroke-width="1" x1="749.6383790256414" y1="100" x2="749.6383790256414" y2="100"></line><line stroke="#6DD657" stroke-width="1" x1="749.6383790256414" y1="220" x2="749.6383790256414" y2="220"></line><line stroke="#50DE5A" stroke-width="1" x1="706.3455062103676" y1="100" x2="686.3455062103676" y2="100"></line><line stroke="#50DE5A" stroke-width="1" x1="706.3455062103676" y1="340" x2="686.3455062103676" y2="340"></line><line stroke="#50DE5A" stroke-width="1" x1="686.3455062103676" y1="100" x2="686.3455062103676" y2="340"></line><line stroke="#50DE5A" stroke-width="1" x1="686.3455062103676" y1="100" x2="749.6383790256414" y2="100"></line><line stroke="#50DE5A" stroke-width="1" x1="686.3455062103676" y1="340" x2="686.3455062103676" y2="340"></line><line stroke="#304B31" stroke-width="1" x1="910.9158708240278" y1="820" x2="890.9158708240278" y2="820"></line><line stroke="#304B31" stroke-width="1" x1="910.9158708240278" y1="940" x2="890.9158708240278" y2="940"></line><line stroke="#304B31" stroke-width="1" x1="890.9158708240278" y1="820" x2="890.9158708240278" y2="940"></line><line stroke="#304B31" stroke-width="1" x1="890.9158708240278" y1="820" x2="890.9158708240278" y2="820"></line><line stroke="#304B31" stroke-width="1" x1="890.9158708240278" y1="940" x2="890.9158708240278" y2="940"></line><line stroke="#73F191" stroke-width="1" x1="856.3565130755323" y1="460" x2="836.3565130755323" y2="460"></line><line stroke="#73F191" stroke-width="1" x1="856.3565130755323" y1="580" x2="836.3565130755323" y2="580"></line><line stroke="#73F191" stroke-width="1" x1="836.3565130755323" y1="460" x2="836.3565130755323" y2="580"></line><line stroke="#73F191" stroke-width="1" x1="836.3565130755323" y1="460" x2="836.3565130755323" y2="460"></line><line stroke="#73F191" stroke-width="1" x1="836.3565130755323" y1="580" x2="836.3565130755323" y2="580"></line><line stroke="#50DE5A" stroke-width="1" x1="706.3455062103676" y1="100" x2="686.3455062103676" y2="100"></line><line stroke="#50DE5A" stroke-width="1" x1="706.3455062103676" y1="340" x2="686.3455062103676" y2="340"></line><line stroke="#50DE5A" stroke-width="1" x1="686.3455062103676" y1="100" x2="686.3455062103676" y2="340"></line><line stroke="#50DE5A" stroke-width="1" x1="686.3455062103676" y1="100" x2="749.6383790256414" y2="100"></line><line stroke="#50DE5A" stroke-width="1" x1="686.3455062103676" y1="340" x2="686.3455062103676" y2="340"></line><line stroke="#304B31" stroke-width="1" x1="910.9158708240278" y1="820" x2="890.9158708240278" y2="820"></line><line stroke="#304B31" stroke-width="1" x1="910.9158708240278" y1="940" x2="890.9158708240278" y2="940"></line><line stroke="#304B31" stroke-width="1" x1="890.9158708240278" y1="820" x2="890.9158708240278" y2="940"></line><line stroke="#304B31" stroke-width="1" x1="890.9158708240278" y1="820" x2="890.9158708240278" y2="820"></line><line stroke="#304B31" stroke-width="1" x1="890.9158708240278" y1="940" x2="890.9158708240278" y2="940"></line><line stroke="#3D9A34" stroke-width="1" x1="604.590931444968" y1="460" x2="584.590931444968" y2="460"></line><line stroke="#3D9A34" stroke-width="1" x1="604.590931444968" y1="700" x2="584.590931444968" y2="700"></line><line stroke="#3D9A34" stroke-width="1" x1="584.590931444968" y1="460" x2="584.590931444968" y2="700"></line><line stroke="#3D9A34" stroke-width="1" x1="584.590931444968" y1="460" x2="836.3565130755323" y2="460"></line><line stroke="#3D9A34" stroke-width="1" x1="584.590931444968" y1="700" x2="584.590931444968" y2="700"></line><line stroke="#304B31" stroke-width="1" x1="910.9158708240278" y1="820" x2="890.9158708240278" y2="820"></line><line stroke="#304B31" stroke-width="1" x1="910.9158708240278" y1="940" x2="890.9158708240278" y2="940"></line><line stroke="#304B31" stroke-width="1" x1="890.9158708240278" y1="820" x2="890.9158708240278" y2="940"></line><line stroke="#304B31" stroke-width="1" x1="890.9158708240278" y1="820" x2="890.9158708240278" y2="820"></line><line stroke="#304B31" stroke-width="1" x1="890.9158708240278" y1="940" x2="890.9158708240278" y2="940"></line><line stroke="#3D9A34" stroke-width="1" x1="604.590931444968" y1="100" x2="584.590931444968" y2="100"></line><line stroke="#3D9A34" stroke-width="1" x1="604.590931444968" y1="700" x2="584.590931444968" y2="700"></line><line stroke="#3D9A34" stroke-width="1" x1="584.590931444968" y1="100" x2="584.590931444968" y2="700"></line><line stroke="#3D9A34" stroke-width="1" x1="584.590931444968" y1="100" x2="749.6383790256414" y2="100"></line><line stroke="#3D9A34" stroke-width="1" x1="584.590931444968" y1="700" x2="584.590931444968" y2="700"></line><line stroke="#304B31" stroke-width="1" x1="604.590931444968" y1="100" x2="584.590931444968" y2="100"></line><line stroke="#304B31" stroke-width="1" x1="604.590931444968" y1="940" x2="584.590931444968" y2="940"></line><line stroke="#304B31" stroke-width="1" x1="584.590931444968" y1="100" x2="584.590931444968" y2="940"></line><line stroke="#304B31" stroke-width="1" x1="584.590931444968" y1="100" x2="749.6383790256414" y2="100"></line><line stroke="#304B31" stroke-width="1" x1="584.590931444968" y1="940" x2="890.9158708240278" y2="940"></line></svg>