<svg viewBox="0 0 1530 1450" width="1530px" height="1450px" id="theclust" style="display: block;"><g><text x="1011.5855897080779" y="103" transform="rotate(0, 1006.5855897080779, 100)">tlg0007096tranquillitate.replicatio.v03.txtkn</text><circle title="tlg0007096tranquillitate.replicatio.v03.txt" id="tlg0007096tranquillitate.replicatio.v03.txtdot" fill="none" stroke-width="1" stroke="#4B682E" cx="1006.5855897080779" cy="100" r="5" onclick="console.log(this)"></circle></g><g><text x="1011.5855897080779" y="223" transform="rotate(0, 1006.5855897080779, 220)">tlg0007095ira.replicatio.v03.txtkn</text><circle title="tlg0007095ira.replicatio.v03.txt" id="tlg0007095ira.replicatio.v03.txtdot" fill="none" stroke-width="1" stroke="#96CF05" cx="1006.5855897080779" cy="220" r="5" onclick="console.log(this)"></circle></g><g><text x="1015.160162759668" y="343" transform="rotate(0, 1010.160162759668, 340)">tlg0032005apologia.replicatio.v03.txtkn</text><circle title="tlg0032005apologia.replicatio.v03.txt" id="tlg0032005apologia.replicatio.v03.txtdot" fill="none" stroke-width="1" stroke="#CB07DC" cx="1010.160162759668" cy="340" r="5" onclick="console.log(this)"></circle></g><g><text x="1015.160162759668" y="463" transform="rotate(0, 1010.160162759668, 460)">tlg0059038axiochus.replicatio.v03.txtkn</text><circle title="tlg0059038axiochus.replicatio.v03.txt" id="tlg0059038axiochus.replicatio.v03.txtdot" fill="none" stroke-width="1" stroke="#06DAB1" cx="1010.160162759668" cy="460" r="5" onclick="console.log(this)"></circle></g><g><text x="973.2728349470958" y="583" transform="rotate(0, 968.2728349470958, 580)">tlg0059002apologia.replicatio.v03.txtkn</text><circle title="tlg0059002apologia.replicatio.v03.txt" id="tlg0059002apologia.replicatio.v03.txtdot" fill="none" stroke-width="1" stroke="#76BBDB" cx="968.2728349470958" cy="580" r="5" onclick="console.log(this)"></circle></g><g><text x="937.2068779266017" y="703" transform="rotate(0, 932.2068779266017, 700)">tlg0059008politicus.replicatio.v03.txtkn</text><circle title="tlg0059008politicus.replicatio.v03.txt" id="tlg0059008politicus.replicatio.v03.txtdot" fill="none" stroke-width="1" stroke="#6D6745" cx="932.2068779266017" cy="700" r="5" onclick="console.log(this)"></circle></g><g><text x="937.2068779266017" y="823" transform="rotate(0, 932.2068779266017, 820)">tlg0059004phaedo.replicatio.v03.txtkn</text><circle title="tlg0059004phaedo.replicatio.v03.txt" id="tlg0059004phaedo.replicatio.v03.txtdot" fill="none" stroke-width="1" stroke="#414F88" cx="932.2068779266017" cy="820" r="5" onclick="console.log(this)"></circle></g><g><text x="25" y="943" transform="rotate(0, 20, 940)">tlg0059034leges.replicatio.v03.txtkn</text><circle title="tlg0059034leges.replicatio.v03.txt" id="tlg0059034leges.replicatio.v03.txtdot" fill="none" stroke-width="1" stroke="#95DB99" cx="20" cy="940" r="5" onclick="console.log(this)"></circle></g><line stroke="#06DAB1" stroke-width="1" x1="1010.160162759668" y1="340" x2="990.160162759668" y2="340"></line><line stroke="#06DAB1" stroke-width="1" x1="1010.160162759668" y1="460" x2="990.160162759668" y2="460"></line><line stroke="#06DAB1" stroke-width="1" x1="990.160162759668" y1="340" x2="990.160162759668" y2="460"></line><line stroke="#06DAB1" stroke-width="1" x1="990.160162759668" y1="340" x2="990.160162759668" y2="340"></line><line stroke="#06DAB1" stroke-width="1" x1="990.160162759668" y1="460" x2="990.160162759668" y2="460"></line><line stroke="#96CF05" stroke-width="1" x1="1006.5855897080779" y1="100" x2="986.5855897080779" y2="100"></line><line stroke="#96CF05" stroke-width="1" x1="1006.5855897080779" y1="220" x2="986.5855897080779" y2="220"></line><line stroke="#96CF05" stroke-width="1" x1="986.5855897080779" y1="100" x2="986.5855897080779" y2="220"></line><line stroke="#96CF05" stroke-width="1" x1="986.5855897080779" y1="100" x2="986.5855897080779" y2="100"></line><line stroke="#96CF05" stroke-width="1" x1="986.5855897080779" y1="220" x2="986.5855897080779" y2="220"></line><line stroke="#06DAB1" stroke-width="1" x1="1010.160162759668" y1="340" x2="990.160162759668" y2="340"></line><line stroke="#06DAB1" stroke-width="1" x1="1010.160162759668" y1="460" x2="990.160162759668" y2="460"></line><line stroke="#06DAB1" stroke-width="1" x1="990.160162759668" y1="340" x2="990.160162759668" y2="460"></line><line stroke="#06DAB1" stroke-width="1" x1="990.160162759668" y1="340" x2="990.160162759668" y2="340"></line><line stroke="#06DAB1" stroke-width="1" x1="990.160162759668" y1="460" x2="990.160162759668" y2="460"></line><line stroke="#06DAB1" stroke-width="1" x1="1006.5855897080779" y1="100" x2="986.5855897080779" y2="100"></line><line stroke="#06DAB1" stroke-width="1" x1="1006.5855897080779" y1="460" x2="986.5855897080779" y2="460"></line><line stroke="#06DAB1" stroke-width="1" x1="986.5855897080779" y1="100" x2="986.5855897080779" y2="460"></line><line stroke="#06DAB1" stroke-width="1" x1="986.5855897080779" y1="100" x2="986.5855897080779" y2="100"></line><line stroke="#06DAB1" stroke-width="1" x1="986.5855897080779" y1="460" x2="990.160162759668" y2="460"></line><line stroke="#76BBDB" stroke-width="1" x1="968.2728349470958" y1="100" x2="948.2728349470958" y2="100"></line><line stroke="#76BBDB" stroke-width="1" x1="968.2728349470958" y1="580" x2="948.2728349470958" y2="580"></line><line stroke="#76BBDB" stroke-width="1" x1="948.2728349470958" y1="100" x2="948.2728349470958" y2="580"></line><line stroke="#76BBDB" stroke-width="1" x1="948.2728349470958" y1="100" x2="986.5855897080779" y2="100"></line><line stroke="#76BBDB" stroke-width="1" x1="948.2728349470958" y1="580" x2="948.2728349470958" y2="580"></line><line stroke="#414F88" stroke-width="1" x1="932.2068779266017" y1="700" x2="912.2068779266017" y2="700"></line><line stroke="#414F88" stroke-width="1" x1="932.2068779266017" y1="820" x2="912.2068779266017" y2="820"></line><line stroke="#414F88" stroke-width="1" x1="912.2068779266017" y1="700" x2="912.2068779266017" y2="820"></line><line stroke="#414F88" stroke-width="1" x1="912.2068779266017" y1="700" x2="912.2068779266017" y2="700"></line><line stroke="#414F88" stroke-width="1" x1="912.2068779266017" y1="820" x2="912.2068779266017" y2="820"></line><line stroke="#76BBDB" stroke-width="1" x1="968.2728349470958" y1="100" x2="948.2728349470958" y2="100"></line><line stroke="#76BBDB" stroke-width="1" x1="968.2728349470958" y1="580" x2="948.2728349470958" y2="580"></line><line stroke="#76BBDB" stroke-width="1" x1="948.2728349470958" y1="100" x2="948.2728349470958" y2="580"></line><line stroke="#76BBDB" stroke-width="1" x1="948.2728349470958" y1="100" x2="986.5855897080779" y2="100"></line><line stroke="#76BBDB" stroke-width="1" x1="948.2728349470958" y1="580" x2="948.2728349470958" y2="580"></line><line stroke="#414F88" stroke-width="1" x1="932.2068779266017" y1="100" x2="912.2068779266017" y2="100"></line><line stroke="#414F88" stroke-width="1" x1="932.2068779266017" y1="820" x2="912.2068779266017" y2="820"></line><line stroke="#414F88" stroke-width="1" x1="912.2068779266017" y1="100" x2="912.2068779266017" y2="820"></line><line stroke="#414F88" stroke-width="1" x1="912.2068779266017" y1="100" x2="986.5855897080779" y2="100"></line><line stroke="#414F88" stroke-width="1" x1="912.2068779266017" y1="820" x2="912.2068779266017" y2="820"></line><line stroke="#95DB99" stroke-width="1" x1="20" y1="100" x2="0" y2="100"></line><line stroke="#95DB99" stroke-width="1" x1="20" y1="940" x2="0" y2="940"></line><line stroke="#95DB99" stroke-width="1" x1="0" y1="100" x2="0" y2="940"></line><line stroke="#95DB99" stroke-width="1" x1="0" y1="100" x2="986.5855897080779" y2="100"></line><line stroke="#95DB99" stroke-width="1" x1="0" y1="940" x2="0" y2="940"></line></svg>