<svg viewBox="0 0 1530 1450" width="1530px" height="1450px" id="theclust" style="display: block;"><g><text x="613.311675419432" y="103" transform="rotate(0, 608.311675419432, 100)">tlg0059004phaedo.replicatio.v03.txtkn</text><circle title="tlg0059004phaedo.replicatio.v03.txt" id="tlg0059004phaedo.replicatio.v03.txtdot" fill="none" stroke-width="1" stroke="#2B80CE" cx="608.311675419432" cy="100" r="5" onclick="console.log(this)"></circle></g><g><text x="613.311675419432" y="223" transform="rotate(0, 608.311675419432, 220)">tlg0059002apologia.replicatio.v03.txtkn</text><circle title="tlg0059002apologia.replicatio.v03.txt" id="tlg0059002apologia.replicatio.v03.txtdot" fill="none" stroke-width="1" stroke="#6CA9FA" cx="608.311675419432" cy="220" r="5" onclick="console.log(this)"></circle></g><g><text x="573.6381112081265" y="343" transform="rotate(0, 568.6381112081265, 340)">tlg0032005apologia.replicatio.v03.txtkn</text><circle title="tlg0032005apologia.replicatio.v03.txt" id="tlg0032005apologia.replicatio.v03.txtdot" fill="none" stroke-width="1" stroke="#068C53" cx="568.6381112081265" cy="340" r="5" onclick="console.log(this)"></circle></g><g><text x="698.7579112628362" y="463" transform="rotate(0, 693.7579112628362, 460)">tlg0059008politicus.replicatio.v03.txtkn</text><circle title="tlg0059008politicus.replicatio.v03.txt" id="tlg0059008politicus.replicatio.v03.txtdot" fill="none" stroke-width="1" stroke="#D25D32" cx="693.7579112628362" cy="460" r="5" onclick="console.log(this)"></circle></g><g><text x="698.7579112628362" y="583" transform="rotate(0, 693.7579112628362, 580)">tlg0059034leges.replicatio.v03.txtkn</text><circle title="tlg0059034leges.replicatio.v03.txt" id="tlg0059034leges.replicatio.v03.txtdot" fill="none" stroke-width="1" stroke="#E52B31" cx="693.7579112628362" cy="580" r="5" onclick="console.log(this)"></circle></g><g><text x="501.21482915347156" y="703" transform="rotate(0, 496.21482915347156, 700)">tlg0059038axiochus.replicatio.v03.txtkn</text><circle title="tlg0059038axiochus.replicatio.v03.txt" id="tlg0059038axiochus.replicatio.v03.txtdot" fill="none" stroke-width="1" stroke="#C33D85" cx="496.21482915347156" cy="700" r="5" onclick="console.log(this)"></circle></g><g><text x="761.6744300130888" y="823" transform="rotate(0, 756.6744300130888, 820)">tlg0007096tranquillitate.replicatio.v03.txtkn</text><circle title="tlg0007096tranquillitate.replicatio.v03.txt" id="tlg0007096tranquillitate.replicatio.v03.txtdot" fill="none" stroke-width="1" stroke="#029E57" cx="756.6744300130888" cy="820" r="5" onclick="console.log(this)"></circle></g><g><text x="761.6744300130888" y="943" transform="rotate(0, 756.6744300130888, 940)">tlg0007095ira.replicatio.v03.txtkn</text><circle title="tlg0007095ira.replicatio.v03.txt" id="tlg0007095ira.replicatio.v03.txtdot" fill="none" stroke-width="1" stroke="#91B9BB" cx="756.6744300130888" cy="940" r="5" onclick="console.log(this)"></circle></g><line stroke="#91B9BB" stroke-width="1" x1="756.6744300130888" y1="820" x2="736.6744300130888" y2="820"></line><line stroke="#91B9BB" stroke-width="1" x1="756.6744300130888" y1="940" x2="736.6744300130888" y2="940"></line><line stroke="#91B9BB" stroke-width="1" x1="736.6744300130888" y1="820" x2="736.6744300130888" y2="940"></line><line stroke="#91B9BB" stroke-width="1" x1="736.6744300130888" y1="820" x2="736.6744300130888" y2="820"></line><line stroke="#91B9BB" stroke-width="1" x1="736.6744300130888" y1="940" x2="736.6744300130888" y2="940"></line><line stroke="#91B9BB" stroke-width="1" x1="756.6744300130888" y1="820" x2="736.6744300130888" y2="820"></line><line stroke="#91B9BB" stroke-width="1" x1="756.6744300130888" y1="940" x2="736.6744300130888" y2="940"></line><line stroke="#91B9BB" stroke-width="1" x1="736.6744300130888" y1="820" x2="736.6744300130888" y2="940"></line><line stroke="#91B9BB" stroke-width="1" x1="736.6744300130888" y1="820" x2="736.6744300130888" y2="820"></line><line stroke="#91B9BB" stroke-width="1" x1="736.6744300130888" y1="940" x2="736.6744300130888" y2="940"></line><line stroke="#E52B31" stroke-width="1" x1="693.7579112628362" y1="460" x2="673.7579112628362" y2="460"></line><line stroke="#E52B31" stroke-width="1" x1="693.7579112628362" y1="580" x2="673.7579112628362" y2="580"></line><line stroke="#E52B31" stroke-width="1" x1="673.7579112628362" y1="460" x2="673.7579112628362" y2="580"></line><line stroke="#E52B31" stroke-width="1" x1="673.7579112628362" y1="460" x2="673.7579112628362" y2="460"></line><line stroke="#E52B31" stroke-width="1" x1="673.7579112628362" y1="580" x2="673.7579112628362" y2="580"></line><line stroke="#91B9BB" stroke-width="1" x1="756.6744300130888" y1="820" x2="736.6744300130888" y2="820"></line><line stroke="#91B9BB" stroke-width="1" x1="756.6744300130888" y1="940" x2="736.6744300130888" y2="940"></line><line stroke="#91B9BB" stroke-width="1" x1="736.6744300130888" y1="820" x2="736.6744300130888" y2="940"></line><line stroke="#91B9BB" stroke-width="1" x1="736.6744300130888" y1="820" x2="736.6744300130888" y2="820"></line><line stroke="#91B9BB" stroke-width="1" x1="736.6744300130888" y1="940" x2="736.6744300130888" y2="940"></line><line stroke="#E52B31" stroke-width="1" x1="693.7579112628362" y1="460" x2="673.7579112628362" y2="460"></line><line stroke="#E52B31" stroke-width="1" x1="693.7579112628362" y1="580" x2="673.7579112628362" y2="580"></line><line stroke="#E52B31" stroke-width="1" x1="673.7579112628362" y1="460" x2="673.7579112628362" y2="580"></line><line stroke="#E52B31" stroke-width="1" x1="673.7579112628362" y1="460" x2="673.7579112628362" y2="460"></line><line stroke="#E52B31" stroke-width="1" x1="673.7579112628362" y1="580" x2="673.7579112628362" y2="580"></line><line stroke="#6CA9FA" stroke-width="1" x1="608.311675419432" y1="100" x2="588.311675419432" y2="100"></line><line stroke="#6CA9FA" stroke-width="1" x1="608.311675419432" y1="220" x2="588.311675419432" y2="220"></line><line stroke="#6CA9FA" stroke-width="1" x1="588.311675419432" y1="100" x2="588.311675419432" y2="220"></line><line stroke="#6CA9FA" stroke-width="1" x1="588.311675419432" y1="100" x2="588.311675419432" y2="100"></line><line stroke="#6CA9FA" stroke-width="1" x1="588.311675419432" y1="220" x2="588.311675419432" y2="220"></line><line stroke="#068C53" stroke-width="1" x1="568.6381112081265" y1="100" x2="548.6381112081265" y2="100"></line><line stroke="#068C53" stroke-width="1" x1="568.6381112081265" y1="340" x2="548.6381112081265" y2="340"></line><line stroke="#068C53" stroke-width="1" x1="548.6381112081265" y1="100" x2="548.6381112081265" y2="340"></line><line stroke="#068C53" stroke-width="1" x1="548.6381112081265" y1="100" x2="588.311675419432" y2="100"></line><line stroke="#068C53" stroke-width="1" x1="548.6381112081265" y1="340" x2="548.6381112081265" y2="340"></line><line stroke="#91B9BB" stroke-width="1" x1="756.6744300130888" y1="820" x2="736.6744300130888" y2="820"></line><line stroke="#91B9BB" stroke-width="1" x1="756.6744300130888" y1="940" x2="736.6744300130888" y2="940"></line><line stroke="#91B9BB" stroke-width="1" x1="736.6744300130888" y1="820" x2="736.6744300130888" y2="940"></line><line stroke="#91B9BB" stroke-width="1" x1="736.6744300130888" y1="820" x2="736.6744300130888" y2="820"></line><line stroke="#91B9BB" stroke-width="1" x1="736.6744300130888" y1="940" x2="736.6744300130888" y2="940"></line><line stroke="#E52B31" stroke-width="1" x1="693.7579112628362" y1="460" x2="673.7579112628362" y2="460"></line><line stroke="#E52B31" stroke-width="1" x1="693.7579112628362" y1="580" x2="673.7579112628362" y2="580"></line><line stroke="#E52B31" stroke-width="1" x1="673.7579112628362" y1="460" x2="673.7579112628362" y2="580"></line><line stroke="#E52B31" stroke-width="1" x1="673.7579112628362" y1="460" x2="673.7579112628362" y2="460"></line><line stroke="#E52B31" stroke-width="1" x1="673.7579112628362" y1="580" x2="673.7579112628362" y2="580"></line><line stroke="#068C53" stroke-width="1" x1="568.6381112081265" y1="100" x2="548.6381112081265" y2="100"></line><line stroke="#068C53" stroke-width="1" x1="568.6381112081265" y1="340" x2="548.6381112081265" y2="340"></line><line stroke="#068C53" stroke-width="1" x1="548.6381112081265" y1="100" x2="548.6381112081265" y2="340"></line><line stroke="#068C53" stroke-width="1" x1="548.6381112081265" y1="100" x2="588.311675419432" y2="100"></line><line stroke="#068C53" stroke-width="1" x1="548.6381112081265" y1="340" x2="548.6381112081265" y2="340"></line><line stroke="#91B9BB" stroke-width="1" x1="756.6744300130888" y1="820" x2="736.6744300130888" y2="820"></line><line stroke="#91B9BB" stroke-width="1" x1="756.6744300130888" y1="940" x2="736.6744300130888" y2="940"></line><line stroke="#91B9BB" stroke-width="1" x1="736.6744300130888" y1="820" x2="736.6744300130888" y2="940"></line><line stroke="#91B9BB" stroke-width="1" x1="736.6744300130888" y1="820" x2="736.6744300130888" y2="820"></line><line stroke="#91B9BB" stroke-width="1" x1="736.6744300130888" y1="940" x2="736.6744300130888" y2="940"></line><line stroke="#C33D85" stroke-width="1" x1="496.21482915347156" y1="460" x2="476.21482915347156" y2="460"></line><line stroke="#C33D85" stroke-width="1" x1="496.21482915347156" y1="700" x2="476.21482915347156" y2="700"></line><line stroke="#C33D85" stroke-width="1" x1="476.21482915347156" y1="460" x2="476.21482915347156" y2="700"></line><line stroke="#C33D85" stroke-width="1" x1="476.21482915347156" y1="460" x2="673.7579112628362" y2="460"></line><line stroke="#C33D85" stroke-width="1" x1="476.21482915347156" y1="700" x2="476.21482915347156" y2="700"></line><line stroke="#91B9BB" stroke-width="1" x1="756.6744300130888" y1="820" x2="736.6744300130888" y2="820"></line><line stroke="#91B9BB" stroke-width="1" x1="756.6744300130888" y1="940" x2="736.6744300130888" y2="940"></line><line stroke="#91B9BB" stroke-width="1" x1="736.6744300130888" y1="820" x2="736.6744300130888" y2="940"></line><line stroke="#91B9BB" stroke-width="1" x1="736.6744300130888" y1="820" x2="736.6744300130888" y2="820"></line><line stroke="#91B9BB" stroke-width="1" x1="736.6744300130888" y1="940" x2="736.6744300130888" y2="940"></line><line stroke="#C33D85" stroke-width="1" x1="496.21482915347156" y1="100" x2="476.21482915347156" y2="100"></line><line stroke="#C33D85" stroke-width="1" x1="496.21482915347156" y1="700" x2="476.21482915347156" y2="700"></line><line stroke="#C33D85" stroke-width="1" x1="476.21482915347156" y1="100" x2="476.21482915347156" y2="700"></line><line stroke="#C33D85" stroke-width="1" x1="476.21482915347156" y1="100" x2="588.311675419432" y2="100"></line><line stroke="#C33D85" stroke-width="1" x1="476.21482915347156" y1="700" x2="476.21482915347156" y2="700"></line><line stroke="#91B9BB" stroke-width="1" x1="496.21482915347156" y1="100" x2="476.21482915347156" y2="100"></line><line stroke="#91B9BB" stroke-width="1" x1="496.21482915347156" y1="940" x2="476.21482915347156" y2="940"></line><line stroke="#91B9BB" stroke-width="1" x1="476.21482915347156" y1="100" x2="476.21482915347156" y2="940"></line><line stroke="#91B9BB" stroke-width="1" x1="476.21482915347156" y1="100" x2="588.311675419432" y2="100"></line><line stroke="#91B9BB" stroke-width="1" x1="476.21482915347156" y1="940" x2="736.6744300130888" y2="940"></line></svg>